<?xml version="1.0" encoding="UTF-8" standalone="no"?>
<!DOCTYPE svg PUBLIC "-//W3C//DTD SVG 1.1//EN"
 "http://www.w3.org/Graphics/SVG/1.1/DTD/svg11.dtd">
<!-- Generated by graphviz version 2.36.0 (20140111.2315)
 -->
<!-- Title: test123 Pages: 1 -->
<svg width="310pt" height="270pt"
 viewBox="0.00 0.00 310.00 270.00" xmlns="http://www.w3.org/2000/svg" xmlns:xlink="http://www.w3.org/1999/xlink">
<g id="graph0" class="graph" transform="scale(1 1) rotate(0) translate(4 266)">
<title>test123</title>
<polygon fill="white" stroke="none" points="-4,4 -4,-266 306,-266 306,4 -4,4"/>
<!-- a -->
<g id="node1" class="node"><title>a</title>
<ellipse fill="none" stroke="black" cx="275" cy="-244" rx="27" ry="18"/>
<text text-anchor="middle" x="275" y="-240.3" font-family="Times,serif" font-size="14.00">a</text>
</g>
<!-- b -->
<g id="node2" class="node"><title>b</title>
<polygon fill="none" stroke="black" points="77,-188 23,-188 23,-152 77,-152 77,-188"/>
<text text-anchor="middle" x="50" y="-166.3" font-family="Times,serif" font-size="14.00">b</text>
</g>
<!-- a&#45;&gt;b -->
<g id="edge1" class="edge"><title>a&#45;&gt;b</title>
<path fill="none" stroke="black" d="M250.921,-235.295C211.526,-222.688 133.052,-197.577 86.6933,-182.742"/>
<polygon fill="black" stroke="black" points="87.6264,-179.366 77.0354,-179.651 85.4929,-186.033 87.6264,-179.366"/>
</g>
<!-- x -->
<g id="node4" class="node"><title>x</title>
<ellipse fill="none" stroke="black" cx="140" cy="-170" rx="27" ry="18"/>
<text text-anchor="middle" x="140" y="-166.3" font-family="Times,serif" font-size="14.00">x</text>
</g>
<!-- a&#45;&gt;x -->
<g id="edge3" class="edge"><title>a&#45;&gt;x</title>
<path fill="none" stroke="black" d="M254.496,-232.065C231.898,-220.012 195.347,-200.518 169.634,-186.805"/>
<polygon fill="black" stroke="black" points="171.167,-183.656 160.697,-182.038 167.873,-189.832 171.167,-183.656"/>
</g>
<!-- y -->
<g id="node5" class="node"><title>y</title>
<ellipse fill="none" stroke="black" cx="212" cy="-170" rx="27" ry="18"/>
<text text-anchor="middle" x="212" y="-166.3" font-family="Times,serif" font-size="14.00">y</text>
</g>
<!-- a&#45;&gt;y -->
<g id="edge4" class="edge"><title>a&#45;&gt;y</title>
<path fill="none" stroke="black" d="M261.946,-228.082C253.246,-218.138 241.646,-204.881 231.816,-193.647"/>
<polygon fill="black" stroke="black" points="234.256,-191.12 225.037,-185.899 228.988,-195.73 234.256,-191.12"/>
</g>
<!-- z -->
<g id="node6" class="node"><title>z</title>
<ellipse fill="none" stroke="black" cx="275" cy="-43" rx="27" ry="18"/>
<text text-anchor="middle" x="275" y="-39.3" font-family="Times,serif" font-size="14.00">z</text>
</g>
<!-- a&#45;&gt;z -->
<g id="edge5" class="edge"><title>a&#45;&gt;z</title>
<path fill="none" stroke="black" d="M275,-225.688C275,-191.053 275,-112.992 275,-71.3611"/>
<polygon fill="black" stroke="black" points="278.5,-71.1301 275,-61.1301 271.5,-71.1301 278.5,-71.1301"/>
<text text-anchor="middle" x="280.5" y="-166.3" font-family="Times,serif" font-size="14.00">hi</text>
</g>
<!-- c -->
<g id="node3" class="node"><title>c</title>
<ellipse fill="blue" stroke="blue" cx="50" cy="-43" rx="50.3685" ry="42.3529"/>
<text text-anchor="middle" x="50" y="-49.8" font-family="Palatino Linotype,serif" font-style="italic" font-size="24.00" fill="red">hello</text>
<text text-anchor="middle" x="50" y="-23.8" font-family="Palatino Linotype,serif" font-style="italic" font-size="24.00" fill="red">world</text>
</g>
<!-- b&#45;&gt;c -->
<g id="edge2" class="edge"><title>b&#45;&gt;c</title>
<path fill="none" stroke="black" d="M50,-151.881C50,-137.353 50,-115.725 50,-95.6411"/>
<polygon fill="black" stroke="black" points="53.5001,-95.6354 50,-85.6354 46.5001,-95.6354 53.5001,-95.6354"/>
</g>
<!-- b&#45;&gt;x -->
<g id="edge7" class="edge"><title>b&#45;&gt;x</title>
<path fill="none" stroke="red" stroke-dasharray="5,2" d="M77.0703,-170C85.6689,-170 94.2674,-170 102.866,-170"/>
<polygon fill="red" stroke="red" points="102.96,-173.5 112.96,-170 102.96,-166.5 102.96,-173.5"/>
</g>
<!-- x&#45;&gt;z -->
<g id="edge6" class="edge"><title>x&#45;&gt;z</title>
<path fill="none" stroke="black" d="M154.171,-154.537C167.37,-141.189 187.706,-120.932 206,-104 220.665,-90.4268 237.59,-75.6954 251.008,-64.2263"/>
<polygon fill="black" stroke="black" points="253.51,-66.6928 258.857,-57.5463 248.973,-61.3619 253.51,-66.6928"/>
<text text-anchor="middle" x="233.5" y="-122.8" font-family="Times,serif" font-size="14.00">multi&#45;line</text>
<text text-anchor="middle" x="233.5" y="-107.8" font-family="Times,serif" font-size="14.00">label</text>
</g>
</g>
</svg>
